<?xml version="1.0" encoding="UTF-8"?>
<!DOCTYPE svg PUBLIC "-//W3C//DTD SVG 1.1//EN" "http://www.w3.org/Graphics/SVG/1.1/DTD/svg11.dtd">
<svg xmlns="http://www.w3.org/2000/svg" width="230mm" height="271mm" fill-rule="evenodd" clip-rule="evenodd" image-rendering="optimizeQuality" shape-rendering="geometricPrecision" text-rendering="geometricPrecision" viewBox="0 0 230 271">
  <defs>
    <style type="text/css">
      .str0,.str1,.str2{stroke:#000;stroke-width:.0331}.str1,.str2{stroke:#010101}.str1{stroke:#9c9}.fil0{fill:#000}.fil2{fill:#010101}.fil1{fill:#9c9}.fnt1{font-family:'Noto Sans', sans-serif}.fnt2{font-size:.5em;}
    </style>
  </defs>
  <g id="map">
    <path d="m75.6956 2.9348c3.1045-1.3406 6.4912-2.1167 9.8778-2.1873 2.2225 0.0706 4.445 0.3175 6.7028 0.4587 5.1506 0.0705 9.9836 2.1872 14.7814 3.9158 2.0814 0.5997 4.2333 0.3175 6.35 0.5292 4.0922 0.388 8.2903 0.0705 12.2767 1.27 1.905 0.5291 3.7394 1.3758 5.5033 2.3283 4.5861 2.4342 9.8072 3.1044 14.6755 4.6919 3.8453 0.882 7.5848 2.6459 10.3011 5.5739 2.3637 2.6811 4.9037 5.2917 8.0081 7.1261 2.7164 1.9756 5.3269 4.0922 7.7611 6.3853 2.8928 2.7164 5.5739 5.8208 7.0203 9.5603 0.7761 1.8697 1.5169 4.1275 3.563 4.9389 2.6459 0.8466 4.9389 2.4694 7.232 4.0216 2.6105 1.8345 5.2211 3.6689 7.4083 5.9973 1.0584 1.1288 2.0109 2.3988 2.5047 3.8805 0.8467 2.54 2.3989 4.7625 4.2334 6.6675 0.7408 0.8114 1.5522 1.7992 1.5875 2.9633 0.0705 0.8114-0.5292 1.6581-1.3406 1.7992-1.905-0.9172-3.6689-2.6458-5.9619-2.293 0 1.0583-0.0353 2.1872 0.4233 3.175 0.4586 1.0936 1.4817 1.8344 2.3283 2.6105 4.3039 3.81 8.2198 8.1492 13.2645 11.042-0.5292-2.1873-3.0692-3.4925-2.8928-5.8914 2.3636-0.4939 4.8331 0 7.232-0.0353 1.7286-0.0353 3.4219 0.7055 4.5508 2.0461 1.7286 2.0108 2.54 4.6214 3.0691 7.1967 0.7056 4.0569 1.5875 8.0786 2.3284 12.1355 0.2822 1.0583-0.3175 2.1167-1.1995 2.6811-2.0108 1.3406-4.9741 1.7639-6.9497 0.1059-2.6105-2.3284-5.1153-4.7625-7.7258-7.0909-1.2347-1.023-1.6933-2.6458-2.3283-4.0569-0.4234-0.882-0.3881-1.8345-0.2823-2.787 0.9878-0.1058 1.9756-0.1763 2.9281-0.4586-1.27-1.7991-3.1397-3.0339-4.8683-4.3744-5.8914-4.3392-12.6648-7.5847-17.4625-13.2292-1.1995-1.3053-1.7639-3.1044-3.2456-4.1628-2.7517-2.0813-6.3853-2.2577-9.7014-2.1519-3.1044 0.1764-6.4558 0.8467-8.7842 3.0692-1.0936 0.9525-1.5875 2.3989-2.5752 3.4219-0.7409 0.9172-1.6228 1.6933-2.3636 2.5753-0.9173 1.1289-0.4234 2.7164-0.9878 3.9864-1.7992 4.198-5.6445 6.985-7.7964 10.9714 0.3528 0.2822 0.6703 0.5644 1.023 0.8466-1.7991 0.8467-3.7747 0.9173-5.6797 1.1642-2.5752 0.3528-5.1858 0.2822-7.7964 0.2822-1.4111 0-2.7516-0.4939-4.198-0.4586-4.0922-0.0705-7.867 2.1167-11.9945 1.9756-1.6933 0.0705-3.4572-0.2823-4.8683-1.27-3.9864-2.9281-9.7014-3.81-14.2875-1.6581-0.4939 0.2117-1.023 0.1058-1.5169 0.1764-0.635 0.4586-0.882 1.2347-1.3053 1.8697-1.1642 2.2225-3.3867 3.8806-3.7747 6.4911-0.3528 2.6106-0.1411 5.2564-0.3528 7.867 0.8114 0.3527 1.5875 0.9172 1.8344 1.8344 0.5998 1.9403 0.7409 3.9864 1.5523 5.8914 1.4111 3.5631 4.4097 6.2794 7.5847 8.2903 2.5047 1.5875 5.3622 2.3989 8.0786 3.5278 1.4817 0.5291 2.928 1.4463 4.5861 1.27 5.715-0.2823 11.4653-0.3881 17.1803-0.1059 1.8697 1.1642 3.4219 2.7517 4.7272 4.4803-0.7408 1.6228-1.4464 3.4572-0.9525 5.2564 0.3881 1.3758 1.4111 2.7164 0.8819 4.2333-1.6227 3.2456-4.0922 6.1736-5.0094 9.7367-0.5644 1.9403-0.0353 4.198 1.5522 5.468 2.0109 1.5523 4.445 2.7164 7.0203 2.8575 2.1519 0.1059 4.1628-1.1994 6.35-0.8466 1.27 0.2822 2.7164 1.4464 2.4342 2.8928-0.2117 1.1994-1.4817 1.658-2.4342 2.2225-2.2225 1.1641-4.5508 2.8575-5.0447 5.5386 2.54 0.8819 5.1152 1.7286 7.7611 2.0108 1.9755 0.635 2.8575 2.6811 3.6689 4.3744 0.9172 1.9756 2.5752 4.0217 1.6227 6.2795-1.4111 2.8575-3.0691 5.6091-4.0216 8.6783-0.2822 0.8114-0.1411 1.8345 0.5997 2.3989 1.0936 0.7761 2.4694 1.1994 3.2808 2.3636 0.7056 0.8467 0.247 2.0814 0.7761 3.0339 0.8114 1.7286 2.54 2.7517 4.1628 3.6336 2.8928 1.3758 5.8209 2.6458 8.7489 3.9864 0.882 0.2822 1.0583 1.3053 1.4111 2.0461 0.7056 1.6581 1.2347 3.6689 2.9986 4.445 1.6581 0.5292 3.3161-0.2822 4.7625-1.0583 0.1059 1.0936-0.1411 2.293 0.3881 3.2808 0.8467 1.8697 1.658 3.7395 1.9403 5.7856 0.2116 3.0339-0.635 6.0325-1.6228 8.8547-0.7761 2.4342 1.1642 4.5861 1.1994 6.985 0.247 2.5047-0.8819 4.9742-2.7164 6.6322-2.6458 2.3989-5.2916 4.7978-7.9727 7.1967-5.1506 4.0922-11.2889 6.8439-17.6742 8.3608-2.8928 0.8114-5.4681 2.4342-7.7611 4.3392-1.4464 1.1994-3.2103 1.9755-5.08 2.293-3.3514 0.4586-6.7733-0.4939-10.0894 0.1764-1.1642 0.2117-2.2931 0.6703-3.3867 1.0583-0.1058 0.5292-0.2117 1.0231-0.3175 1.5523-2.3636 0.6702-4.8331 0.8466-7.232 1.2347-2.3988 0.1058-4.7625-0.2822-7.1261-0.5292 0.2117-1.3053 0.8114-2.8222-0.0705-3.9864-0.7761-0.7055-1.905-0.6702-2.8222-1.0583-1.1995-0.4586-2.4342-1.4817-2.2931-2.8928 0.1411-1.4816 1.0583-2.7164 1.5875-4.0569 0.4233-1.1642 0.2469-2.3989 0.1058-3.5984-3.7041 1.5875-7.9727 2.9634-11.9944 1.6934-2.8928-1.1289-5.6092-2.7164-8.4667-3.9864-2.9633-1.27-6.3853-0.4939-9.3133-1.9756-0.7408-0.4233-2.0814-0.7408-1.9756-1.8344 0.3528-2.3989 1.4111-4.6214 2.7164-6.6322-1.5169 0.1764-3.2808 0.6703-4.6214-0.3175-1.5875-0.9525-1.658-2.9634-2.6458-4.3745-1.1289-2.0108-3.3161-3.5277-5.6797-3.3514-2.0814 0.0706-4.445 0.1059-6.1383 1.4464-0.882 0.5645-0.3175 1.6228 0.1411 2.2578 0.7408 1.0936 2.1872 1.7639 2.3989 3.175-0.1412 1.4111-1.5875 2.152-2.787 2.4342-1.8697 0.4233-4.0569 0.6703-5.6444-0.635-2.1167-1.7639-3.5984-4.1275-5.6092-6.0325-3.3867-3.2103-6.4558-6.7028-9.8425-9.9131-0.5997-0.635-1.4464-1.1641-1.4464-2.1166-0.3175-2.6812-0.4233-5.3623-0.4586-8.0787-0.0353-2.7869 0.4939-5.6444-0.4586-8.3255-0.882-3.0339-3.175-5.4681-5.715-7.2672-2.0814-1.5875-4.1275-3.175-6.2089-4.7625-1.0936-0.9173-2.6106-0.5292-3.9511-0.6703-0.8114-0.882-1.1289-2.1167-1.7286-3.175-2.2578-0.6703-5.08-0.0353-6.8086-1.9756-0.7761-1.27-0.4234-2.9986-1.4111-4.2333-0.9878-1.6581-3.1398-1.3053-4.7625-1.5169-1.517 0-2.3284-1.6934-2.0462-2.9987 0.3881-2.4341 1.6581-4.7977 1.3759-7.3377-0.5645-1.7639-1.0584-3.5278-1.3406-5.3622 0.1059-1.6581 2.6811-1.0937 2.9281-2.6812 0.3528-1.6227 0.3528-3.7394-1.1289-4.7625-1.7286-0.8819-3.7747-0.1411-5.5739-0.7761-1.4464-0.4939-2.8222-1.4464-3.5631-2.8222-0.388-0.8467 0.5292-1.5522 1.1995-1.7639 1.3405-0.3528 2.7164-0.2116 4.0569-0.3175 3.7748-0.1058 7.4789-1.9403 9.9484-4.7978 0.8466-0.9525 0.388-2.293 0.0352-3.3513-0.7408-1.905-1.5522-3.9512-3.2455-5.2564-1.7286-1.3759-3.81-2.4695-6.0325-2.4695-1.517-0.0353-2.7164-1.3405-2.9633-2.7869-0.4587-1.4464 1.023-2.4342 1.3052-3.7395 0.6703-2.9986 1.3406-6.2089 0.1411-9.1722-1.0936-3.1397-4.198-5.1505-5.08-8.3961-0.7408-1.9756 0.3528-3.9511 0.9878-5.7856 2.1167-5.8208 4.692-11.5005 7.0909-17.2155 1.6227-3.81 3.4572-7.62 4.1275-11.7475 0.388-2.0814-0.1412-4.1981 0.3527-6.2794 0.2117-1.27 1.1289-2.5048 0.635-3.8453-0.2822-0.2117-0.5997-0.3881-0.9525-0.5292-2.7869-1.1289-5.5033-2.5047-8.4666-3.1044-1.27-0.3175-2.9634-0.7056-3.3867-2.152 0-1.2347 1.0936-2.0461 1.7992-2.9633 0.2469-1.5522 0.1411-3.3867 1.4816-4.4803 1.8698-1.4111 3.7042-2.8575 5.327-4.5508 1.7991-1.6581 4.3744-2.0109 6.738-2.0461 1.517 0 1.905-2.2225 3.5278-1.905 3.1397 0.5291 6.35 0.7761 9.5603 0.8114 0.7761-0.0353 1.4464 0.388 2.0814 0.7408 1.4816-1.1289 2.7869-2.5753 3.5278-4.3039 0.2469-0.4233 0.388-0.9878 0.8466-1.2347 2.2931-1.3406 5.1506-2.1872 7.7611-1.3053 1.6228 0.5644 2.7164 1.9756 3.8806 3.1397 2.0814 1.5875 4.7978 2.7517 7.4436 2.0814 1.6228-0.635 3.3161-1.2347 5.1153-1.1642 2.1519-0.1763 4.1628 0.7056 6.0325 1.6581 1.8344 0.9525 3.175 2.6106 5.0447 3.4219 1.8697 0.3881 3.8805-0.9525 4.2333-2.8222 0.3175-1.6933-0.1058-3.4219-0.5291-5.08-0.7762-2.3636-1.7992-4.8683-3.7748-6.4911-1.8697-1.5875-4.6566-1.023-6.4558-2.7164-1.1994-1.0936 0.0353-3.0339-1.1289-4.198-2.0461-2.1167-5.08-3.2103-8.008-3.0692-3.7395 0.1411-7.4789 1.1994-10.5834 3.3867-0.9172 0.6702-2.3636 0.8819-3.2808 0.0352-1.5875-1.3052-1.7639-3.5277-2.1519-5.3975 1.3758-1.4111 2.7516-2.8575 3.7394-4.5861-0.5292-1.2347-1.7286-3.0338-0.3528-4.1275 1.7639-1.0583 4.0217-0.5291 5.9972-0.4586-0.4586-2.54 1.1995-4.833 3.2456-6.1736 3.0339-1.9403 6.2794-3.5278 9.6661-4.7978 3.81-1.1994 7.5847-2.54 11.3594-3.8452z" class="fil0 str0"/>
    <path d="m76.8951 3.4639c2.7517-1.1289 5.715-1.7639 8.6783-1.8344 2.3636 0.0705 4.692 0.3528 7.0556 0.4939 3.6689 0.0353 7.1614 1.4111 10.6186 2.5753 1.9403 0.7055 3.8805 1.6227 5.9619 1.6933 3.8806 0.0705 7.7611 0.388 11.677 0.5644 3.1397 0.1411 6.2441 0.9878 8.9958 2.5048 2.6106 1.4463 5.4328 2.54 8.3256 3.2808 2.9633 0.7408 5.8914 1.658 8.8194 2.4694 3.5983 0.9878 6.9497 2.9986 9.3486 5.8561 1.7992 2.0814 3.9511 3.81 5.9972 5.6092-2.7516 0.1058-5.468-0.7056-7.9022-1.9403-2.6458-1.27-4.9742-3.8805-8.1491-3.4925-0.2823 0.7409-0.5645 1.4464-0.8467 2.152-1.8345-0.7056-3.4572-1.9403-4.3039-3.7395-4.0569-0.1058-8.1492-0.2822-12.2061-0.388-1.3406 0.0705-2.4342-1.0584-2.8575-2.2578-0.4233-1.6933 1.905-2.4694 1.7286-4.1275-0.1764-0.9878-1.1289-1.6581-2.0814-1.7992-4.2686-0.8114-8.6783-0.4586-13.0175-0.5291-2.9633 0.1058-5.8914-0.2823-8.8194-0.4939-4.7978-0.4234-9.6309-0.7761-14.4639-1.1642-3.5631-0.1411-7.3025 0.5645-10.2659 2.6106 1.6228 2.293 4.1275 4.3744 7.0909 4.3391 0.635 0 1.2347 0.0353 1.8697 0.1059-1.905 1.1641-4.0922 1.905-6.3147 2.293-3.3161 0.3881-6.6675 0.0706-9.9131-0.4939-1.905-0.3527-3.8452-0.388-5.7855-0.2822-2.152 0.1058-4.3039 1.0231-5.6445 2.7517-0.8819 1.1994-2.293 2.1519-3.8452 1.8697-1.9403-0.3175-3.5278-1.6581-4.9037-2.9633 0.2117-0.1411 0.6703-0.4234 0.882-0.5645-0.4939-1.5875-0.4233-3.4572 0.7408-4.7272 1.9403-2.2225 4.7978-3.3514 7.3731-4.6919 3.1397-1.5875 6.6322-2.2225 9.913-3.4573 2.0814-0.7408 4.1981-1.3758 6.2442-2.2225z" class="fil1 str1"/>
    <path d="m80.3876 11.7542c2.8575-1.5522 6.1736-2.1519 9.4192-1.9403 5.7855 0.4586 11.5358 0.882 17.3213 1.3759 5.9267 0.635 11.9592-0.247 17.8859 0.635 0.7408 0.1764 1.9755 0.3527 1.905 1.3758-0.3881 1.3406-1.9403 2.2578-1.7286 3.81 0.3527 1.4817 1.7286 2.6458 3.1397 3.1044 4.0922 0.1764 8.1492 0.247 12.2414 0.4234 1.0936 2.0461 3.1397 3.3161 5.2916 3.9864 0.4939-0.8114 0.882-1.6581 1.27-2.54 1.8345 0.3175 3.3867 1.3405 4.9036 2.3636 2.3637 1.5522 5.0448 2.6458 7.8317 3.1044 1.3053 0.2117 2.6458 0.0353 3.9864 0.1764 1.6228 0.9172 2.9986 2.2225 4.4803 3.3514 3.7747 3.2808 7.6905 6.7733 9.5955 11.5358 0.8114 2.1167 1.6228 4.6214 3.8453 5.715 3.9511 1.27 7.2672 3.8806 10.6186 6.3147 2.6106 2.0462 5.4681 4.3039 6.5264 7.5848 0.9525 2.6811 2.787 4.9036 4.692 6.9497 0.7408 0.7761 1.023 1.7992 0.9172 2.8575-2.0814-0.882-3.9864-2.6458-6.35-2.3636-0.7409 0.4586-0.9525 1.3758-0.882 2.1872-0.0352 1.5875 0.7056 3.1397 1.8698 4.1981 2.2577 2.0108 4.445 4.0216 6.6322 6.103 2.1872 2.1872 4.7272 4.0217 7.2672 5.7503 0.6703 0.4586 1.3758 0.8114 2.1167 1.0583 0.3527-2.7164-1.9756-4.4803-3.1045-6.6322 2.1872-0.1411 4.3392 0.0706 6.4911 0.1058 1.7286 0 3.3161 1.0231 4.3039 2.3989 1.3406 1.905 1.9756 4.1628 2.4342 6.4206 0.6703 3.6689 1.4111 7.3025 2.1166 10.9361 0.1059 0.6703 0.3175 1.3758-0.0705 1.9755-0.9525 1.3053-2.6811 1.6581-4.1981 1.6581-1.3405 0.0353-2.3988-0.882-3.3161-1.7286-2.1519-1.9756-4.2686-3.9511-6.4205-5.9267-1.6228-1.3758-2.4342-3.5278-2.6811-5.6091 0.9172-0.1412 2.1519 0.1058 2.7164-0.8467 0.5291-0.8114-0.3881-1.6581-0.882-2.2225-6.4558-6.0325-15.0989-9.3486-21.0255-16.0161-1.3759-1.4817-2.0462-3.5278-3.7748-4.692-2.8927-2.1519-6.6675-2.3636-10.1247-2.2577-3.3514 0.1763-6.9497 0.9172-9.4544 3.2808-1.2348 1.0583-1.7286 2.6811-2.8223 3.8453-0.8466 0.9525-1.8697 1.7286-2.5047 2.8575-0.635 1.2347-0.3175 2.7164-0.9525 3.9511-1.6228 3.3514-4.4097 5.9266-6.5969 8.9253-0.5997 0.7761-0.9525 1.7286-1.2347 2.6811-4.3039 0.6702-8.7136 1.1641-13.0175 0.5291-5.6445-1.4816-10.9009 2.7164-16.5453 1.5875-1.9756-0.2822-3.3514-1.8344-5.1153-2.54-3.5983-1.5875-7.7964-1.8697-11.5358-0.5644 0.4233-1.4817 0.7055-2.9986 1.3758-4.4097 0.3881-0.882 1.1642-1.5875 1.5522-2.4695 0.1059-1.4111-0.0352-2.9986-1.023-4.0569-0.8467-0.7056-2.0109-0.5997-3.0339-0.7056-1.5522 0-3.175-0.388-4.2686-1.5522-1.0584-1.0583-1.3406-2.5753-1.6934-3.9864-1.1994 0.3175-2.8222 0.4939-3.2455 1.8697-0.1058 1.517 0.3528 2.9986 0.9172 4.3745 1.9403 4.9389 3.5983 10.0541 3.8453 15.4164-0.9172-0.9525-1.2347-2.1873-1.8697-3.2809-1.1289-1.9755-2.8575-3.7041-5.0095-4.4802-1.27-0.4939-2.8575-1.0937-3.2103-2.5753-0.1763-1.4464 0.6703-2.787 0.8114-4.1981 0.4939-2.7516-1.3405-5.3269-0.6702-8.0433 0.2116-1.905 1.7286-3.4572 3.563-3.8806 1.8345-0.388 3.7042-0.5997 5.5739-0.8114-0.0353 0.9878-0.7761 2.2225 0.2117 2.9987 0.635 0.8113 1.7639 0.3527 2.6458 0.3175 2.8575-0.4587 6.2442-0.4587 8.255-2.8575-2.1519-0.4234-4.3392-1.2348-5.9972-2.7517-1.3406-1.4464-0.2822-3.4572-0.4939-5.1858-3.0692 0.2116-6.1031-0.5292-9.1017-1.0584-1.4816-0.2822-2.7516-1.023-4.0216-1.7991 0.388-0.5292 1.023-0.9525 1.023-1.6581 0-0.9525-0.388-1.8344-0.6703-2.7517 2.8575 2.2225 5.4681 4.8684 8.8548 6.2442 1.3758 0.5644 2.8927 0.5292 4.3038 0.1764-0.4586-1.1995-1.4463-2.4342-0.9525-3.7395 0.9173-1.3405 2.8928-1.6227 3.5631-3.175 0.1764-1.0583-0.7056-1.9755-1.5169-2.4694-2.2578-1.2347-4.9742-0.9525-7.4084-0.5997-0.0353-0.7409 0.1411-1.5875-0.388-2.1872-0.7056-0.8114-1.7286-1.1642-2.6811-1.5523-3.5631-1.3405-7.3378-2.0814-11.1125-2.4694-1.1995-0.1058-2.3989-0.3881-3.4925-0.882 1.9402-1.7286 4.3038-2.928 6.5263-4.2333-0.2116-2.7517-3.1397-3.6689-5.3269-4.4803-1.3406-0.388-1.6581-1.7991-1.905-2.9986-0.2117-0.9878-1.3758-1.1641-2.1872-1.023-2.8222 0.5291-5.6092 1.3405-8.502 1.2347-1.4111-0.0353-2.7869 0.0705-4.198-0.0706-1.1642-0.5644-2.0814-1.5522-3.3161-2.0814-3.3161-1.6933-7.232-1.2347-10.7245-0.3527-2.1872 0.5644-4.1627 1.5875-6.0325 2.8222-0.7055 0.5644-1.7991 0.4939-2.3989-0.247-0.8819-1.1641-1.0936-2.7163-1.4463-4.1275 1.3758-1.5169 2.8222-3.0338 3.6688-4.9388-0.0705-1.1642-1.7638-2.5753-0.3527-3.5631 1.3758-0.3175 2.7869-0.1058 4.1627-0.1411 1.0231 1.7992 2.7164 3.0692 4.5156 3.9864 1.5522 0.8114 3.5983 0.7055 4.9389-0.4586 1.1642-1.0584 2.0461-2.54 3.6336-3.1045 2.9633-1.1994 6.2794-0.7408 9.3486-0.2116 4.2686 0.635 8.8547 0.9172 12.9822-0.7056 1.1995-0.4586 2.3989-1.0583 3.2103-2.1167-1.0231-1.5169-2.8928-0.8113-4.4097-1.2347-1.6934-0.5291-3.0692-1.7639-4.3039-2.9986z" class="fil1 str1"/>
    <path d="m72.5207 32.1448c2.8222-0.0706 5.5033-1.0584 8.2902-1.1995 0.2822 1.3758 0.4586 3.1397 1.9403 3.7747 1.9756 0.8467 4.4803 1.1995 5.3975 3.422-2.3636 1.3053-4.7978 2.5753-6.8086 4.445 0.7055 1.4816 2.4694 1.7286 3.9158 1.905 4.2334 0.388 8.4314 1.27 12.3825 2.8575 0.7056 0.2822 1.4817 0.7055 1.6934 1.4816-0.2117 0.7056-0.635 1.3406-0.9525 2.0109 2.7516 0.0705 5.6091-0.9525 8.255 0.2116 0.7408 0.2823 1.7638 0.9173 1.4816 1.905-0.8466 1.2348-2.7516 1.27-3.3866 2.7164-0.4939 1.1289 0.0705 2.3989 0.3175 3.5278-3.6337-0.0705-6.4559-2.6811-9.1723-4.7978-1.1641-0.8114-2.1166-2.2225-3.6689-2.1872 0.0706 1.4111 0.5645 2.7164 0.9525 4.0217-0.5291 0.3528-1.0936 0.635-1.4816 1.0936 0.7408 1.6933 2.6811 2.3989 4.3039 2.9986 3.0691 0.7056 6.1736 1.1994 9.278 1.4111-0.1764 1.4111-0.635 2.9633 0.247 4.2333 1.1994 1.6228 3.2102 2.2578 4.9389 3.2103-2.152 1.0584-4.5509 1.1995-6.8792 1.517-0.5645 0.1058-1.0936-0.1059-1.6228-0.2823 0.2822-0.9525 0.4939-1.905 0.4939-2.928-1.1642-0.2117-2.3283-0.1058-3.4572 0.1058-1.6934 0.2822-3.5278 0.3175-5.0095 1.27-0.8819 0.4939-1.4816 1.27-2.0814 2.0109-2.7869-1.905-6.6675-1.5875-9.4544 0.1058-1.9403-0.7761-3.7747-1.6933-5.7503-2.3989-2.8222-0.8467-5.8561 0.6703-7.5141 2.9633-1.1642 1.8698-0.247 4.1981 0.9172 5.8561 1.023 1.3759 1.658 2.9987 1.9403 4.7273-1.8698-0.5292-3.6689-1.3406-5.1153-2.6459-1.5522-1.3405-1.8697-3.6689-3.6689-4.7977-1.3758-0.9173-3.175-0.2117-4.3039 0.8113-1.905 1.7992-3.6689 4.1628-3.6336 6.9498-0.9172-1.0584-1.7286-2.1873-2.5047-3.3161-0.247-0.3175-0.4234-0.8114-0.882-0.882-1.7639-0.4233-3.5983-0.4939-5.2916-1.1642 0.2822-0.8113 0.7408-1.5522 0.8114-2.3988-0.9878-1.1642-2.9634-1.5523-3.175-3.2456-0.4587-1.6228-1.1642-3.2103-2.152-4.5508-0.388-0.6703-1.4111-0.3175-1.6933 0.2822-0.5997 0.9878-1.0584 2.0814-1.6228 3.1044-2.1167-0.0705-4.3744-0.8819-5.1858-2.9986-0.7056-1.2347 0.5291-2.1872 1.2347-2.9986-0.8114-0.5644-1.6581-1.0936-2.4695-1.6933 0.9878-0.882 1.5523-2.1872 1.3406-3.5278-0.1764-1.5875-0.2117-3.7394-1.8697-4.5156-1.7992-0.635-3.5631 0.4587-5.2211 1.0231-1.3406-0.0353-2.6459-0.5997-3.9864-0.1411-1.7639 0.5644-2.7517 2.2578-3.7042 3.7394-2.3636 0.0353-5.1858-0.4939-7.0555 1.3406-0.9878 1.0583 0.0705 2.3636 0.2116 3.5278 0 1.3405-0.7408 2.5047-1.3405 3.6336-2.1167-0.8467-4.6214-0.8467-6.4206-2.2931 0.3881-1.1994 1.4464-1.905 2.1167-2.8928 0.0705-1.4111 0-3.1044 1.1641-4.1275 1.0937-0.7761 2.1873-1.5522 3.175-2.4694 1.3053-1.0583 2.3637-2.5047 4.0217-3.0339 1.4817-0.635 3.1045-0.4939 4.6567-0.7055 1.1994-0.1764 1.6933-1.7992 2.9633-1.6934 3.1397 0.3528 6.2795 0.635 9.4192 0.7056 0.7408-0.1059 1.0583 0.6703 1.5169 1.0583 1.517-0.7055 2.9281-1.658 3.9159-3.0339 0.7055-0.8819 1.023-1.9755 1.6227-2.928 2.152-1.3053 4.9036-2.0109 7.3025-1.0936 1.7639 0.6702 2.6106 2.6105 4.2334 3.4925 2.3283 1.4111 5.1858 2.5047 7.8669 1.4463 2.7517-1.1288 6.0325-1.4463 8.7489-0.0352 2.3636 0.8819 4.0217 2.928 6.2442 3.9864 2.293 0.7055 5.0094-0.8467 5.468-3.2103 0.635-2.8928-0.4586-5.8561-1.5169-8.502-1.0231-2.1872-2.54-4.445-4.9742-5.2211-1.5522-0.4939-3.4572-0.4939-4.6214-1.8344-0.2822-0.9878-0.1411-2.0814-0.2469-3.1045 1.6933-0.0352 3.4219 0 5.1153-0.0352z" class="fil1 str1"/>
    <path d="m26.6243 56.4511c1.5169-0.4938 3.1044-1.5522 4.7977-1.0936 1.3406 0.7056 1.2348 2.4342 1.4112 3.7042 0.2116 1.4111-0.9525 2.3636-1.3759 3.5278 0.3175 0.8466 1.1642 1.3053 1.8345 1.8697-0.4234 0.8114-1.0936 1.6933-0.7056 2.6811 0.8114 2.6811 3.7042 4.1628 6.3853 4.057 1.1994-0.9878 1.6228-2.54 2.3989-3.81 1.0936 1.7286 1.8697 3.5983 2.3989 5.5386 0.8466 0.8114 1.8344 1.4111 2.7516 2.0814-0.3175 0.7055-0.635 1.3758-0.9172 2.0461 1.4111 1.9402 4.0922 1.3405 6.1031 2.1166 1.3052 1.7992 2.54 3.6336 4.0922 5.1859-2.5047 1.5522-4.9742 3.2102-7.4789 4.833-1.3053 0.8114-2.3283 2.152-2.3636 3.7395-0.0706 2.4694 1.3405 4.6213 2.8222 6.4558 1.1642 1.5522 2.9281 2.54 3.9158 4.2333 0.4234 0.7056 0.7409 1.4817 1.1289 2.2225 2.6106-0.4939 5.1859-2.1872 5.962-4.8683 0.9525-2.3636-0.1764-5.2211 1.3758-7.4083 0.5645-1.0231 1.8697-1.0584 2.8928-0.9878 3.4219 0.3175 6.8792 2.0108 8.7489 5.0094 1.4816 2.5047 2.8575 5.08 3.81 7.867-2.2225 0.388-4.9036 0.4586-6.3853 2.4341-1.1994 1.6228-0.1764 3.6336 0.4233 5.2564-2.2577 0.9172-4.7272 1.7639-6.35 3.7042-0.7761 1.3405-1.1994 2.8928-2.0461 4.2333-1.1289 0.0706-2.3636 0.1764-3.175 1.0936-2.3283 2.4342-3.81 5.5386-5.8914 8.1845-1.023 1.1641-2.293 1.9755-3.563 2.8575-0.9172 0.635-1.2347 1.7639-1.6228 2.7516 0.9172 1.4112 1.9403 2.8223 2.0814 4.5862-1.0231 0.3175-2.0461 0.5997-3.0692 0.8819-0.4233-1.8697-1.4464-3.6689-3.1397-4.6567-1.0583-0.6702-2.4694-0.8466-3.5983-0.2469-1.6228 1.1642-2.3989 3.7394-4.692 3.7394-1.5875 0.247-3.1397 0.2823-4.7272 0.2823-1.5169 0-3.175 0.7408-3.6689 2.2577-0.8467 2.3636-0.4939 4.9036-0.4586 7.3731-2.0814-0.1411-4.1981-0.3175-6.3147-0.4939-0.8467-3.175-2.1167-6.5969-4.9742-8.5019-1.5522-1.0231-3.3514-1.9403-5.2917-1.905-1.0583 0-2.0461-0.7056-2.3283-1.7287-0.5997-1.3758 0.9525-2.4341 1.1642-3.7394 0.7408-3.2808 1.4464-6.9144-0.0353-10.0894-1.1289-2.9281-4.0569-4.8331-4.9036-7.9023-0.5645-1.8344 0.4233-3.5983 1.023-5.3269 2.2225-6.0678 4.9389-11.9945 7.4437-17.9564 1.3405-3.2455 2.8927-6.3853 3.5983-9.8425 0.7761-2.9986-0.3528-6.2442 0.9525-9.1722 0.6703-1.1289 0.5292-2.787-0.6703-3.4572-1.5522-0.8114-3.2103-1.3406-4.7978-2.0814 0.7409-1.517 1.7992-3.2103 1.1642-4.9036-0.1411-0.7056-0.7761-1.5523-0.0706-2.1167 1.9403-1.4111 4.5156-0.7761 6.7381-0.9525 0.8819-1.4464 1.7286-3.1397 3.4219-3.7747 1.2348-0.4939 2.5048 0.1411 3.7748 0.2116z" class="fil1 str1"/>
    <path d="m57.457 64.4592c1.9756-1.8697 4.4098-3.8453 7.3025-3.6689 1.27 0.0706 2.7517 0.4233 3.5278 1.4817-0.3175 1.905-1.5169 3.5278-2.9986 4.7272-1.0583 0.7056-0.635 2.1167-1.0936 3.1397-0.7761 0.9525-2.1519 0.7761-3.2456 0.9878-1.5875 0.2117-2.8575 1.27-4.3391 1.7992 0.2822-1.1642 1.1641-2.2931 0.7055-3.5631-0.3175-1.5875-1.3052-3.563 0.1411-4.9036z" class="fil2 str2"/>
    <path d="M59.0093 64.2475c1.5522-1.2347 3.2808-2.6105 5.3975-2.5752 1.023-.0353 1.9755.3527 2.928.6702-.2469.8467-.5291 1.7286-1.0936 2.4342-.635.8819-1.6228 1.4464-2.2578 2.3283-.4939.7761-.3527 1.7286-.635 2.54-1.5522.7056-3.3161.5645-4.8683 1.3053 0-1.5522-.7056-2.9633-.8467-4.4803-.1411-.9877.7761-1.6227 1.3759-2.2225zM72.1326 69.9625c1.3053-.8819 2.9986-.9877 4.4803-.5291 1.5875.7761 3.2102 1.5522 4.9036 2.1872.1411.7055.1411 1.5522.6703 2.1167.635.7408 1.5875 1.3405 1.7638 2.3988.5645 2.1873 1.0231 4.4098 2.152 6.3853.7055 1.1642.7408 2.6811-.1058 3.7747-2.0109 2.3989-5.1153 3.5631-6.9145 6.1384-1.0583 1.3758-1.6228 2.9986-2.1872 4.6214-.5292.388-.882-.247-1.1995-.5998-1.5522-2.0461-2.4341-4.5508-2.8222-7.0555-.4586-3.2808.7761-6.7733-.635-9.9131-.7055-2.1166-2.7516-3.6336-2.7164-5.9619-.0352-1.6581 1.3053-2.8222 2.6106-3.5631z" class="fil1 str1"/>
    <path d="M82.4337 72.1498c2.6106-1.8345 6.5264-2.4695 9.1017-.3528-.3528 2.0108-.1764 4.0922.3527 6.0325.4939 1.905.0706 3.8805-.5291 5.715-.4234 1.1289-.2117 2.4341.635 3.3161 1.4816 1.5522 3.8453 1.5875 5.3975 3.0692 2.1519 1.658 2.7869 4.445 4.4803 6.4911-1.1642 1.5522-2.0814 3.3513-2.152 5.3269-.1058 2.3636-.1058 4.7272-.2117 7.0908-.5291.0353-1.0583.0353-1.5522.0706-.2822-1.5522-.4233-3.3161-1.658-4.4803-1.1289-1.1289-2.7517-1.3053-4.2686-1.4111-.1059-3.1397-1.0584-6.2089-2.8575-8.7842 0-1.7286.635-3.4925-.0706-5.1858-.3175-1.1289-1.3406-1.7639-2.3636-2.2225.388-.8467.8114-1.7639.6703-2.7164-.1411-1.4111-.882-2.6811-1.3759-3.9864-.635-1.4816-.8466-3.1044-1.3405-4.6214-.3528-1.3758-1.9756-1.9402-2.2578-3.3513zM98.4145 75.995c.3175-.635 1.0584-.8819 1.6228-1.1994.4939 1.6933 1.1995 3.4572 2.7517 4.445 1.658 1.0936 3.7041.8819 5.6091 1.1642 1.1995.1763 1.517 1.6227 1.5523 2.6458.1058 1.1642-.9173 1.905-1.3759 2.8575-.8819 1.6933-1.27 3.563-1.6933 5.3975-.5997.0705-1.1642.1764-1.7286.2822-.5997 1.0231-1.1995 2.0461-1.905 2.9633-.635-3.81-1.1995-7.6905-2.6106-11.3241-.7055-2.4342-2.0461-4.692-2.2225-7.232z" class="fil1 str1"/>
    <path d="m58.8682 76.8064c0.8819-0.8819 2.0461-1.8344 3.3866-1.5875 1.5522 0.5645 2.0109 2.3284 2.8575 3.5984 1.6228 2.3283 4.3745 3.4925 6.985 4.3038-0.1411 2.4342-0.4233 4.8684 0.1059 7.2673 0.4938 2.4694 1.5169 4.833 3.0338 6.8791 0.4234 0.4939 1.0231 1.1642 1.7639 0.882 1.3053-1.3759 1.4111-3.422 2.54-4.9389 1.517-2.54 4.3745-3.6336 6.4559-5.5739 0.7761 0.2822 1.7991 0.4233 2.1519 1.27 0.7761 1.5875 0.2469 3.3161 0.0706 4.9389-0.2117 0.7761 0.5291 1.3405 0.8466 1.9755 1.5875 2.3636 1.9403 5.2564 2.152 8.0434 1.4111 0.1411 2.8927 0.0352 4.1275 0.8114 1.0583 1.1288 1.5169 2.6458 1.658 4.198-2.1166-0.0353-4.4097 0-6.2089 1.27-2.2225 1.7639-3.7394 4.3039-4.7272 6.9145-1.0583 0.0352-2.1167 0.1058-3.175 0.1411-0.0353-2.7517-1.7992-5.0095-3.6336-6.8792 1.0936-0.7056 3.0692-1.4464 2.6106-3.0692-1.0231-1.27-2.8223-1.3758-4.3039-1.7286-1.0231-3.2103-2.54-6.2089-4.445-8.9605-1.905-2.7517-5.08-4.3745-8.3609-4.8331-1.4111-0.1058-3.0691-0.1764-4.1275 0.9525-1.27 1.4111-1.27 3.422-1.27 5.2211 0.0353 1.7639-0.4233 3.5984-1.658 4.9036-0.8467 0.9878-2.0814 1.517-3.2456 2.0109-0.7055-1.3053-1.3758-2.6459-2.5752-3.5984-2.152-1.7639-4.1275-4.0216-4.8684-6.738-0.4939-1.6933 0.2822-3.5631 1.7286-4.5156 2.8223-1.8697 5.6798-3.6336 8.4667-5.5386-0.4586-0.9878-1.0231-1.9755-0.8819-3.1044 0.2469-1.7639 1.3758-3.2103 2.54-4.5156z" class="fil1 str1"/>
    <path d="M74.0729 106.792c2.293-.5997 4.833-.5291 6.9144.6703.0706.4233-.0705.7408-.4233.9172-.882.6703-1.905 1.0936-2.8222 1.7639 2.0461 1.8697 4.1275 4.0922 4.3038 7.0203-2.7516.635-5.5033 1.5522-7.7258 3.3161-2.8928 2.3636-6.2089 4.2686-9.7719 5.3622-3.9511 1.1995-6.8086 4.5861-8.3256 8.255-1.0583 2.54-1.0583 5.5386.3528 7.9375 1.5522 2.6459 2.54 5.6092 2.9633 8.6078-1.7639.3175-3.4925.9172-5.2916.7408-2.0109-.3527-3.7042-1.5875-5.4681-2.5752.9172-.7762 1.8345-1.517 2.7517-2.2931-1.1642-1.3758-2.3636-2.7869-2.5753-4.5861.7056-.3528 1.7992-.4939 1.9403-1.4817.1764-1.7286-1.0584-3.175-1.9403-4.5861.6703-2.1872 3.1044-2.8928 4.5156-4.4803 2.3283-2.6811 3.7747-6.0325 6.2441-8.5725.7409-.8466 1.9756-.635 2.9986-.8466 1.1289-1.905 1.6581-4.3392 3.5984-5.6445 1.6933-1.2347 3.7041-1.8697 5.6091-2.6105-.4939-1.4464-1.5169-2.8928-1.27-4.5156.3881-1.5522 2.0109-2.1519 3.422-2.3989zM87.0904 117.058c1.3052-3.0692 3.3161-6.7381 6.985-7.1967 2.293-.1764 4.6566-.1411 6.985.0705.5291 1.27.7761 2.6459 1.023 4.0217-2.293 2.2931-4.7625 4.5156-7.62 6.1031-2.3283-1.27-4.6919-2.6106-7.373-2.9986zM18.4751 113.495c1.5522 0 2.0814 2.9281.4586 3.0339-1.2347-.5292-1.023-2.0814-.4586-3.0339zM41.9348 113.848c.3175-.4586 1.3406 0 .9172.5291-.3527.4587-1.3758.0353-.9172-.5291zM36.5373 113.919c.4939-.0352.9525-.0352 1.4111-.0352-.0705.8466.247 1.7638-.2116 2.5047-.3881.2822-.8467.0353-1.1995-.1059v-2.3636zM95.5923 120.41c2.4342-1.5522 4.5861-3.4219 6.7028-5.3622 1.4464 4.9036 5.3975 8.6078 9.7367 11.0772 2.8575 1.4817 5.9972 2.4342 8.9605 3.7042 1.8345.882 3.8806.3881 5.8208.3881 4.6567-.247 9.3487-.1764 13.97-.0353 1.6934.8467 2.9281 2.3636 4.1628 3.7394-.635 1.905-1.5522 4.0923-.5997 6.0678.5644 1.0936 1.1994 2.5047.3528 3.6336-1.4817 2.4342-2.787 4.9389-4.1628 7.4436-.9172 1.8698-1.27 4.1628-.3528 6.1031.8114 1.6228 2.4342 2.6458 3.9511 3.5278 2.2225 1.1641 4.8331 1.9402 7.3378 1.3405 1.4111-.2469 2.7869-.8819 4.2333-.635.9173.1764 1.4111 1.0231 1.905 1.7286-.4586.4939-.8819 1.0584-1.5522 1.3406-2.5753 1.1994-5.2917 2.9986-6.0678 5.9267-.2469 1.3052-1.6933 1.6227-2.6458 2.293-1.6933 1.0936-3.81.3528-5.6797.4939-1.3406-.1411-2.5047.8467-3.8453.5644-1.3758-.4586-2.0108-1.905-2.54-3.175-2.6811-7.4788-5.3269-14.993-7.7611-22.613-.635-2.2931-.5644-4.9742.7761-7.0203.4586-.7761 1.1642-1.5169 1.0936-2.4694-.0705-.635-.6703-1.1289-1.27-1.2348-2.3283-.1763-4.6214-.0705-6.9497-.1411-3.9511-.1411-6.0325-4.8683-10.0542-4.7625.1059.9525.3528 1.8698.5998 2.7517-1.905.3528-3.5278-.8114-4.8331-2.0461-1.5522-1.4464-2.9633-2.9986-4.3744-4.5861.8466-.7409 2.1166-1.4464 2.1166-2.7164-.0353-1.4111-1.3758-2.2225-2.54-2.7517-2.1519-.8819-4.4097-1.5169-6.4911-2.5753z" class="fil1 str1"/>
    <path d="m74.1434 121.715c2.4695-1.9403 5.4681-3.3161 8.6078-3.6336 2.4694-0.0705 5.08-0.4233 7.4083 0.5997 2.0461 0.9878 3.9511 2.2578 6.1031 3.1045 1.8697 0.8466 3.9158 1.3405 5.8208 2.2225 0.7409 0.4233 1.7992 1.023 1.5875 2.0461-0.388 1.0936-1.5522 1.5522-2.3989 2.1872 1.9756 2.54 4.1275 4.9389 6.7381 6.8086 1.1289 0.9172 2.7869 1.3053 4.1275 0.5997 0.8114-0.5644 0.3175-1.6227 0.2822-2.3988 1.7639 0.9877 3.3514 2.1872 4.9742 3.3513 1.1641 0.9173 2.6458 1.4112 4.1275 1.4112 2.293-0.0353 4.5861 0 6.8791 0.1411 0.0706 1.3405-1.023 2.293-1.5169 3.4925-1.1289 2.6105-0.6703 5.5739 0.2117 8.1844 2.293 7.0203 4.7272 14.0053 7.2672 20.9197 0.5997 1.5875 1.5169 3.3161 3.2103 3.8453 1.1641 0.3881 2.293-0.2822 3.3866-0.4939 1.5523-0.1411 3.1045 0.0706 4.6567 0.0706-1.27 4.833-5.1858 8.255-9.1017 10.9714-1.905 1.3052-4.0569 2.2577-6.2794 2.8927-4.3392 1.3406-8.2197 4.445-10.0542 8.6431-0.8466 1.9755-1.0583 4.198-0.9525 6.3147 0.1411 1.3053-1.023 2.1167-2.0108 2.6811-2.0461 1.1995-3.9511 2.6459-5.4681 4.445-0.635 0.7761-1.6227 1.0231-2.4694 1.4111-3.6689 1.5523-7.1967 3.9511-8.9958 7.5848-2.54 0.4233-5.5739-0.3881-7.6553 1.5169-4.3745 3.6336-10.3011 4.9389-15.875 4.5156-1.8345-0.3175-3.9864-0.5645-5.2917-2.0814-0.8819-1.3053 0.2117-2.8575 0.882-3.9864 3.9511-5.4681 5.08-13.0175 2.2225-19.2264-0.6703-1.27 0.2822-2.6458 0.9877-3.7042 2.2225-2.7164 4.6214-5.2564 6.8439-7.9728 1.3759-1.658 2.1167-3.8452 2.1167-5.9972 0.0705-1.905-0.7056-3.7394-0.5292-5.6444 0.0706-2.2578 1.9756-4.057 1.6581-6.35-0.1764-2.2225-2.152-3.5983-3.8453-4.692-2.4694-2.1872-4.1628-5.08-5.3622-8.0786-0.7409-1.8344-2.6106-3.1397-4.6214-3.1044-1.7992-0.2117-3.4925 0.5292-5.2917 0.635-2.2225 0.1764-4.1275-1.3406-5.3975-2.9986-0.4939-0.5645-0.635-1.3053-0.7761-2.0109-0.4939-2.8575-1.3758-5.6444-2.8575-8.1138-1.3053-1.9756-1.4816-4.5509-0.6703-6.7734 0.9878-2.8928 2.8928-5.5033 5.5034-7.1614 1.5169-0.9877 3.3514-1.3405 5.0094-2.0814 2.4342-1.0583 4.7272-2.4341 6.8086-4.0922z" class="fil1 str1"/>
    <path d="m40.947 137.237c1.7287-0.5997 3.2456 0.8467 4.2687 2.0462 0.8466 0.9525 0.6702 2.2225 0.5291 3.3866 0.7761-0.1764 1.517-0.388 2.2931-0.5997 0.3175 1.6228 1.1641 3.0692 2.2225 4.3392-1.1642 0.8819-2.3989 1.7991-2.9986 3.175 2.54 0.3527 4.3744 2.4694 6.9144 2.7516 1.8697 0.1411 3.7042-0.4939 5.5386-0.8114 1.2347 1.7287 2.6811 3.4925 4.7625 4.1275 2.5753 0.882 5.08-0.8113 7.6906-0.3527 1.5169 0.1764 2.8575 1.1994 3.4572 2.6105 1.1994 2.9281 2.8222 5.7503 5.1153 7.9375 1.5875 1.0231 3.563 2.0461 3.9864 4.057 0.5291 2.2225-1.27 3.9511-1.517 6.0325-0.4586 2.2225 0.4939 4.3744 0.3528 6.5969-0.0706 2.0814-0.9172 4.0922-2.2578 5.6092-1.9755 2.2577-3.9511 4.5155-5.8914 6.7733-0.9525 1.0583-1.6933 2.2931-2.0108 3.6689-0.2469 0.7761 0.2822 1.5522 0.5292 2.293 2.0108 4.8331 1.658 10.4775-0.7409 15.0989-0.8819 1.9403-2.6811 3.4925-2.9633 5.715-0.1764 1.5523 1.0231 2.8928 2.4342 3.422 4.1627 1.5169 8.7136 1.1289 12.9822 0.1411 2.4341-0.7056 4.833-1.7639 6.8086-3.3867 0.8114-0.5997 1.5875-1.3758 2.6458-1.4816 1.5875-0.2117 3.2103-0.2117 4.7978-0.3528-0.9525 3.1397-1.5169 6.4558-1.5169 9.7719-0.0353 1.3759 0 2.9634-0.9525 4.057-0.882 0.8466-2.2225 0.8819-3.2809 0.4939-4.3391-1.6581-8.89-2.7517-13.5114-2.8928-2.3989-0.0706-4.6214 0.8466-6.7733 1.7639-2.8222 0.1764-6.0678 0.4233-8.008 2.7869-0.5998-0.5644-1.3053-0.9878-1.7992-1.6228-0.4939-0.8114-0.7761-1.7639-1.4817-2.3636-1.1289-0.9878-2.7164-1.5875-3.1397-3.1397 0.8114-0.5292 1.6933-1.0231 2.54-1.5169-0.8467-1.0937-1.905-2.3637-1.4464-3.8453 0.5997-2.1872 3.2103-2.7164 4.2333-4.6214-0.8466-1.4464-2.3636-2.787-2.1872-4.5861 0.3175-1.4817 1.9756-1.8697 3.0339-2.7517 1.517-1.023 2.0814-2.928 1.8697-4.6919-0.2822-3.9511 1.0231-7.9375 3.5631-11.0067 1.8344-2.1519 3.4925-4.5156 4.445-7.1967 1.0936-2.9633 0.8114-6.1383 1.3758-9.2075 0.4233-0.8466 1.3758-1.3758 1.517-2.3989 0.5644-2.928 0.9877-6.103-0.3175-8.8899-1.1289-2.3637-2.9634-4.5509-5.5034-5.3975-1.5522-0.5645-3.2455-0.3528-4.833-0.2117-2.9634 0.3175-5.962 0.0353-8.89-0.3528-1.6228-0.2117-3.0692-1.2347-3.9864-2.6105-1.0936-1.6228-2.6458-3.0692-4.6214-3.4925-2.2225-0.3881-4.5508-0.1059-6.7733-0.5645-1.5523-0.4586-0.635-2.2578-0.5292-3.3514-5.1153-0.4233-10.0894-1.658-15.24-1.9403-0.2117-2.3283-0.4939-4.7625 0.2469-6.985 0.3881-1.27 1.7639-1.8344 2.9987-1.8344 2.0813 0 4.198 0 6.2088-0.5644 1.4112-1.0584 2.2578-2.7517 3.81-3.6337z" class="fil1 str1"/>
    <path d="M11.9134 156.534c3.3514-.9172 6.7381-2.787 8.3961-5.9267 4.5862.3528 9.2075.4939 13.7231 1.27 2.5753.3881 5.1153.882 7.6906 1.0584-.2823 1.27-.247 2.9986 1.27 3.4572 2.293.4939 4.7272.1764 7.0555.6703 1.6581.4938 3.0339 1.6227 4.0217 2.9986.6703.9525 1.5169 1.8344 2.5753 2.3636 1.6227.8819 3.4925.7761 5.2916 1.023 2.7164.2823 5.4328.0353 8.1139-.1411 3.1397-.2116 5.715 2.2225 7.0203 4.8331 1.3758 2.6105 1.0583 5.6797.4586 8.4314-.1764 1.0936-1.3758 1.658-1.5875 2.7163-.3175 1.7639-.4233 3.5631-.5292 5.3623-.1411 2.7164-1.2347 5.3269-2.7164 7.5847-1.2347 2.0108-3.0691 3.5983-4.1275 5.715-1.4463 2.6105-2.1166 5.6092-2.0108 8.5725.0706 1.2347.1058 2.5753-.6703 3.5983-.9877 1.517-3.3514 1.517-4.0216 3.3514-.7761 2.0461.8114 3.9158 1.9402 5.4681-1.4463 1.3758-3.6336 2.2225-4.1627 4.3039-.4586 1.3405.2469 2.6458.8819 3.7394-.7055.5292-1.6933.8819-1.9403 1.8344 0 1.7287 1.7286 2.6106 2.9634 3.5278 1.0936.635 1.2347 1.9756 1.9755 2.9281.7056.7408 1.5875 1.27 2.4695 1.7991.9172 1.517 2.2577 2.7517 3.1397 4.3039-1.5875 1.4464-3.9511 1.9403-6.0325 1.3759-1.905-.7761-2.9633-2.6811-4.3745-4.1275-2.9986-3.6689-6.6322-6.7381-9.8777-10.1953-.9173-.9878-1.905-1.8697-2.8223-2.8222-.4586-.3175-.4938-.9173-.5644-1.4111-.4233-3.9864-.4233-8.0081-.2822-12.0298.0705-3.3161-1.27-6.5969-3.5278-8.9958-2.7164-2.7517-6.0325-4.7625-8.9958-7.2672-1.2348-1.1289-2.9986-1.0584-4.5509-1.0584-.6702-1.0583-.635-2.8575-2.0814-3.2102-1.9402-.7056-4.5861.1058-6.0325-1.7286-.5291-1.4464-.4938-3.175-1.5875-4.4098-1.1994-1.5522-3.3513-1.3758-5.1152-1.5522-.8467 0-1.4111-.9525-1.27-1.7639.3175-3.0339 2.4341-6.1736.9525-9.1722-.3881-1.3053-.6703-2.6458-1.0936-3.9511.8466-.4233 1.7991-.635 2.54-1.2347.9172-1.0936.8113-2.6459.7055-3.9864-.1411-1.517-1.1642-3.0339-2.7164-3.3514-2.0814-.3881-4.4803.2822-6.3147-1.1289-.5997-.5292-1.6581-1.1994-1.27-2.1167 2.3283-.5644 4.7625-.0705 7.0908-.7055zM98.344 168.246c.2822.5645.5291 1.1642.7761 1.7286-.3528 0-1.1289.0353-1.517.0353.247-.5997.4939-1.1994.7409-1.7639zM146.78 173.926c1.0936-.7055 2.1872-1.4111 3.3866-1.8697 2.152.4939 4.1628 1.3758 6.35 1.6933.9525.1764 2.1167.1411 2.8575.9525 1.4464 1.4111 2.0814 3.3514 3.0339 5.1153.7761 1.3758.882 3.1397.1764 4.5861-1.1994 2.4342-2.54 4.8331-3.4925 7.4084-.3175.8466-.5997 1.8697-.1058 2.6811.8819 1.6227 2.9633 1.9402 4.0216 3.3866.2823.882.1059 1.8345.4939 2.6811.7056 1.5523 2.0814 2.6459 3.4925 3.5278 2.9281 1.7286 6.1736 2.8575 9.1722 4.4097-2.293.882-4.445 2.0814-6.3147 3.5984-3.2103 2.7869-6.5969 5.3269-9.9483 7.9375-.5292-1.1995-.9172-2.5047-1.8345-3.4572-.9877-1.2348-2.4341-1.9403-3.81-2.6106 1.3053-2.3283 4.1275-2.8928 5.9973-4.6214 0-.7055-.8114-.5997-1.27-.7761-3.7395-.635-7.4789-1.7286-11.3242-1.3758-1.3053.0705-2.54.4939-3.8453.7408-.8819-.8819-1.4464-2.1167-2.5047-2.8575-1.4464-1.1642-3.4572-1.4817-5.2564-1.0583-2.1166.388-4.198.9172-6.2441 1.5875 2.0108-3.2456 4.445-6.2089 6.3852-9.4545 1.5523-2.6458 3.8806-4.833 6.6323-6.103 1.3052-.5292 2.4341-1.7639 2.2577-3.2456-.1764-2.0814-1.8697-3.4572-3.1397-4.9036 1.6933-1.7286 3.2103-3.7042 3.9864-6.0325.3175-.635.3881-1.4111.8467-1.9403z" class="fil1 str1"/>
    <path d="M134.045 187.614c2.6811-1.2347 4.9742-3.175 7.2319-5.08 1.1995 1.3053 2.8928 2.6106 2.8575 4.5861-.0352 1.3406-1.3758 1.9756-2.3636 2.54-2.4694 1.3053-4.5861 3.2456-6.0678 5.6445-2.0108 3.3161-4.3744 6.3852-6.5616 9.5955-.4586.635-.882 1.4111-1.6934 1.517-4.7977 1.023-9.5602 2.1872-14.2522 3.4219 1.4817-1.7639 3.4925-2.9281 5.4681-4.0922 1.0936-.5997 1.658-1.8697 1.4464-3.0692-.4939-5.2211 2.8222-10.1247 7.3025-12.5236 2.0814-1.1642 4.5155-1.4817 6.6322-2.54zM128.753 207.017c2.9281-.9878 5.8914-2.1167 9.0311-2.2931 2.1873 0 4.057 1.6228 5.0448 3.4572.8113 1.7287.9172 3.6689 1.1641 5.5739.1059.7409.882 1.1995 1.5875 1.2348 1.7639.0705 3.4925-.5292 5.2564-.5998 2.1872.1764 4.4803.6703 6.1031 2.2578 1.1641.9878 1.5522 2.54 2.1166 3.9158-1.7639 1.7992-2.7164 4.3039-2.293 6.7734.5644 3.563.9525 7.62-1.1289 10.795-.9525 1.7286-2.3989 3.1397-4.1981 3.9511-2.8222 1.3053-5.3269 3.3161-7.3025 5.715-1.2347 1.4816-2.5047 2.8928-3.9864 4.1275-1.9402 1.6933-4.445 2.6811-5.9972 4.7978-2.0814-1.6934-4.9036-2.54-6.2794-4.9742-.4586-.5292-.5997-1.517-1.4111-1.4464-1.3759-.0706-2.7517-.1058-4.1275.0353-.7409.2469-1.3406.7761-1.9756 1.1641-1.5169 1.0231-3.3161 1.5523-4.8683 2.5753-2.9986 1.5522-6.4206 2.4342-9.8072 2.152-5.2564-.8114-9.3839-5.0448-14.8167-5.2917-2.152-.0706-4.3039-.635-6.1736-1.7639.2116-1.4464.635-2.8575 1.27-4.1275.5997-1.3053 1.5169-2.3989 1.9403-3.7394-1.8698-.2117-4.0217.8819-5.715-.3528-1.1289-1.0936-1.3406-2.7869-2.2931-4.0569-.9525-1.6581-2.5753-2.787-4.3039-3.5278 1.6933-.6703 3.5278-1.1289 5.3975-1.0231 4.1628.2117 8.255 1.1995 12.1356 2.6459 1.4111.5291 3.2102.8113 4.5155-.1764 1.3053-.8467 1.5522-2.54 1.5875-3.9864 0-3.7042.4586-7.4789 1.7992-10.9714 1.1994-3.1397 3.9511-5.4328 6.985-6.7733 2.3989-1.0937 4.8683-1.9756 7.3378-2.8575 4.445-1.1642 8.9252-2.1873 13.4055-3.2103z" class="fil1 str1"/>
    <path d="M144.135 208.816c1.7286-.4233 3.4925-.8819 5.2917-.8113 3.0692.0705 6.0325.8466 9.0311 1.4463-1.7639 1.4464-4.2333 2.152-5.1858 4.4098-2.787-.9173-5.5386.4586-8.3609.1058-.2116-1.7286-.388-3.4572-.7761-5.1506zM170.064 213.084c2.1167-1.7992 4.6214-3.1398 7.2672-3.9512.9878 1.9403 1.3758 4.3745 3.2103 5.7856 1.4817 1.0936 3.4219.4939 5.0447.0706.1764 2.293 1.6228 4.2333 2.0814 6.4911.7761 3.1044-.2117 6.3147-1.3053 9.2427-.635 1.5875-.1764 3.3162.3528 4.8684-2.6811.635-5.0094 2.1872-7.0908 3.9511-1.9756 1.7286-3.3161 3.9864-5.08 5.8561-.9173.9172-2.1167 1.5169-2.9986 2.4342 0 .7761.635 1.27 1.1641 1.7286 1.2347.8819 2.6106 1.5169 3.9864 2.1872-4.7978 3.563-10.1953 6.2794-16.0161 7.5847-3.2808.7408-6.2442 2.5047-8.7842 4.6567-1.658 1.4464-3.7747 2.3989-5.9972 2.4341-2.2578 0-4.4803-.4233-6.738-.2822-2.1167.1059-4.1628.7761-6.0678 1.6228-.9878-1.5875-1.5875-3.5983-.8114-5.3269.7056-1.6934 2.8575-2.6459 2.54-4.7273.8114-2.2577 3.4572-3.0339 5.1506-4.5508 3.3513-2.3989 5.3975-6.1736 8.7841-8.5019 1.7992-1.3406 4.0922-1.8698 5.715-3.4573 2.54-2.4694 3.7042-6.1383 3.5983-9.6308.0706-2.6105-1.023-5.3269.0353-7.9022.635-1.905 2.4342-2.9633 3.9511-4.1628 2.6811-2.1519 5.4328-4.1628 8.0081-6.4205zM113.725 234.181c.2469-.5645.4939-1.1289.7761-1.6934.2822.5645.5292 1.1289.7761 1.6934h-1.5522z" class="fil1 str1"/>
    <path d="M180.259 240.178c2.0108-1.7286 4.2686-3.2103 6.8791-3.7395.8114 2.5753.2823 5.5739-1.6933 7.5142-2.5753 2.3989-5.2564 4.7272-7.8669 7.0908-1.7992-.7408-3.6337-1.5875-5.1506-2.8927.8819-.635 1.7639-1.2348 2.5753-1.9403 1.8697-1.905 3.2103-4.3039 5.2564-6.0325zM116.512 254.536c2.0461-.9172 4.0217-1.9402 5.8209-3.2455 1.3405-.3528 2.7869-.0706 4.198-.1411.9878 1.6933 2.2578 3.3161 4.057 4.198 1.4111.7761 3.175 1.6228 3.4572 3.3514-1.1289 1.5522-2.9281 2.8928-2.9633 5.0095-.247 1.9755.8113 3.7394 1.7286 5.4327-1.9403.4586-3.9159.635-5.8561.9525-2.2225.4234-4.4803-.1058-6.7028-.2116.1411-1.3053.388-2.8928-.5997-3.9511-1.1289-.9525-2.7517-.8467-3.9512-1.6581-.5644-.3175-1.0583-.9525-.8819-1.6228.3528-1.6228 1.3053-3.0691 1.6581-4.6919.2469-1.1289.0705-2.2931.0352-3.422z" class="fil1 str1"/>
  </g>
  <g id="label" class="fnt1">
    <switch id="Africa">
      <text x="94.565" y="167.505" systemLanguage="af" id="trsvg72"><tspan class="fnt2" id="trsvg1">Afrika</tspan></text>
      <text x="94.565" y="167.505" id="trsvg80-ast" systemLanguage="ast"><tspan class="fnt2" id="trsvg9-ast">África</tspan></text>
      <text x="94.565" y="167.505" systemLanguage="bg" id="trsvg73"><tspan class="fnt2" id="trsvg2">Африка</tspan></text>
      <text x="94.565" y="167.505" systemLanguage="en" id="trsvg74"><tspan class="fnt2" id="trsvg3">Africa</tspan></text>
      <text x="94.565" y="167.505" systemLanguage="es" id="trsvg75"><tspan class="fnt2" id="trsvg4">África</tspan></text>
      <text x="94.565" y="167.505" systemLanguage="fi" id="trsvg76"><tspan class="fnt2" id="trsvg5">Afrikka</tspan></text>
      <text x="94.565" y="167.505" systemLanguage="fr" id="trsvg77"><tspan class="fnt2" id="trsvg6">Afrique</tspan></text>
      <text x="94.565" y="167.505" systemLanguage="sr" id="trsvg78"><tspan class="fnt2" id="trsvg7">Африка</tspan></text>
      <text x="94.565" y="167.505" systemLanguage="vi" id="trsvg79"><tspan class="fnt2" id="trsvg8">Châu Phi</tspan></text>
      <text x="94.565" y="167.505" id="trsvg80"><tspan class="fnt2" id="trsvg9">Africa</tspan></text></switch>
    <switch id="India">
      <text x="143.024" y="200.925" systemLanguage="af" id="trsvg81"><tspan class="fnt2" id="trsvg10">Indië</tspan></text>
      <text x="143.024" y="200.925" id="trsvg89-ast" systemLanguage="ast"><tspan class="fnt2" id="trsvg18-ast">India</tspan></text>
      <text x="143.024" y="200.925" systemLanguage="bg" id="trsvg82"><tspan class="fnt2" id="trsvg11">Индия</tspan></text>
      <text x="143.024" y="200.925" systemLanguage="en" id="trsvg83"><tspan class="fnt2" id="trsvg12">India</tspan></text>
      <text x="143.024" y="200.925" systemLanguage="es" id="trsvg84"><tspan class="fnt2" id="trsvg13">India</tspan></text>
      <text x="143.024" y="200.925" systemLanguage="fi" id="trsvg85"><tspan class="fnt2" id="trsvg14">Intia</tspan></text>
      <text x="143.024" y="200.925" systemLanguage="fr" id="trsvg86"><tspan class="fnt2" id="trsvg15">Inde</tspan></text>
      <text x="143.024" y="200.925" systemLanguage="sr" id="trsvg87"><tspan class="fnt2" id="trsvg16">Индија</tspan></text>
      <text x="143.024" y="200.925" systemLanguage="vi" id="trsvg88"><tspan class="fnt2" id="trsvg17">Ấn Độ</tspan></text>
      <text x="143.024" y="200.925" id="trsvg89"><tspan class="fnt2" id="trsvg18">India</tspan></text></switch>
    <switch id="South-America">
      <text x="22.287" y="184.629" systemLanguage="af" id="trsvg90"><tspan class="fnt2" id="trsvg19">Suid-Amerika</tspan></text>
      <text x="22.287" y="184.629" id="trsvg98-ast" systemLanguage="ast"><tspan class="fnt2" id="trsvg27-ast">América del Sur</tspan>
      <text x="22.287" y="184.629" systemLanguage="bg" id="trsvg91"><tspan class="fnt2" id="trsvg20">Южна Америка</tspan></text>
      <text x="22.287" y="184.629" systemLanguage="en" id="trsvg92"><tspan class="fnt2" id="trsvg21">South America</tspan></text>
      <text x="22.287" y="184.629" systemLanguage="es" id="trsvg93"><tspan class="fnt2" id="trsvg22">Sudamérica</tspan></text>
      <text x="22.287" y="184.629" systemLanguage="fi" id="trsvg94"><tspan class="fnt2" id="trsvg23">Etelä-Amerikka</tspan></text>
      <text x="22.287" y="184.629" systemLanguage="fr" id="trsvg95"><tspan class="fnt2" id="trsvg24">Amérique du Sud</tspan></text>
      <text x="22.287" y="184.629" systemLanguage="sr" id="trsvg96"><tspan class="fnt2" id="trsvg25">Јужна Америка</tspan></text>
      <text x="22.287" y="184.629" systemLanguage="vi" id="trsvg97"><tspan class="fnt2" id="trsvg26">Nam Mỹ</tspan></text></text><text x="22.287" y="184.629" id="trsvg98"><tspan class="fnt2" id="trsvg27">South America</tspan></text></switch>
    <switch id="Antarctica">
      <text x="111.622" y="233.55" systemLanguage="af" id="trsvg99"><tspan class="fnt2" id="trsvg28">Antarktika</tspan></text>
      <text x="111.622" y="233.55" id="trsvg107-ast" systemLanguage="ast"><tspan class="fnt2" id="trsvg36-ast">Antártida</tspan></text>
      <text x="111.622" y="233.55" systemLanguage="bg" id="trsvg100"><tspan class="fnt2" id="trsvg29">Антарктида</tspan></text>
      <text x="111.622" y="233.55" systemLanguage="en" id="trsvg101"><tspan class="fnt2" id="trsvg30">Antarctica</tspan></text>
      <text x="111.622" y="233.55" systemLanguage="es" id="trsvg102"><tspan class="fnt2" id="trsvg31">Antártida</tspan></text>
      <text x="111.622" y="233.55" systemLanguage="fi" id="trsvg103"><tspan class="fnt2" id="trsvg32">Antarktis</tspan></text>
      <text x="111.622" y="233.55" systemLanguage="fr" id="trsvg104"><tspan class="fnt2" id="trsvg33">Antarctique</tspan></text>
      <text x="111.622" y="233.55" systemLanguage="sr" id="trsvg105"><tspan class="fnt2" id="trsvg34">Антарктик</tspan></text>
      <text x="111.622" y="233.55" systemLanguage="vi" id="trsvg106"><tspan class="fnt2" id="trsvg35">Châu Nam Cực</tspan></text>
      <text x="111.622" y="233.55" id="trsvg107"><tspan class="fnt2" id="trsvg36">Antarctica</tspan></text>
    </switch>
    <switch id="Australia">
      <text x="115" y="135.5" systemLanguage="af" transform="rotate(-35 320.184 132.04)" id="trsvg108"><tspan class="fnt2" id="trsvg37">Australië</tspan></text>
      <text x="115" y="135.5" transform="rotate(-35 320.184 132.04)" id="trsvg116-ast" systemLanguage="ast"><tspan class="fnt2" id="trsvg45-ast">Australia</tspan></text>
      <text x="115" y="135.5" systemLanguage="bg" transform="rotate(-35 320.184 132.04)" id="trsvg109"><tspan class="fnt2" id="trsvg38">Австралия</tspan></text>
      <text x="115" y="135.5" systemLanguage="en" transform="rotate(-35 320.184 132.04)" id="trsvg110"><tspan class="fnt2" id="trsvg39">Australia</tspan></text>
      <text x="115" y="135.5" systemLanguage="es" transform="rotate(-35 320.184 132.04)" id="trsvg111"><tspan class="fnt2" id="trsvg40">Australia</tspan></text>
      <text x="115" y="135.5" systemLanguage="fi" transform="rotate(-35 320.184 132.04)" id="trsvg112"><tspan class="fnt2" id="trsvg41">Australia</tspan></text>
      <text x="115" y="135.5" systemLanguage="fr" transform="rotate(-35 320.184 132.04)" id="trsvg113"><tspan class="fnt2" id="trsvg42">Australie</tspan></text>
      <text x="115" y="135.5" systemLanguage="sr" transform="rotate(-35 320.184 132.04)" id="trsvg114"><tspan class="fnt2" id="trsvg43">Аустралија</tspan></text>
      <text x="115" y="135.5" systemLanguage="vi" transform="rotate(-35 320.184 132.04)" id="trsvg115"><tspan class="fnt2" id="trsvg44">Úc</tspan></text>
      <text x="115" y="135.5" transform="rotate(-35 320.184 132.04)" id="trsvg116"><tspan class="fnt2" id="trsvg45">Australia</tspan></text></switch>
    <switch id="North-America">
      <text x="13.228" y="114.028" id="trsvg117" systemLanguage="af"><tspan class="fnt2" id="trsvg46">Noord-</tspan> <tspan class="fnt2" x="13.228" dy="1em" id="trsvg47">Amerika</tspan></text>
      <text x="13.228" y="114.028" id="trsvg125-ast" systemLanguage="ast"><tspan class="fnt2" id="trsvg61-ast">América</tspan> <tspan class="fnt2" x="13.228" dy="1em" id="trsvg62-ast">del Norte</tspan></text>
      <text x="13.228" y="114.028" id="trsvg118" systemLanguage="bg"><tspan class="fnt2" id="trsvg48">Северна</tspan> <tspan class="fnt2" x="13.228" dy="1em" id="trsvg49">Америка</tspan></text>
      <text x="13.228" y="114.028" id="trsvg119" systemLanguage="en"><tspan class="fnt2" id="trsvg50">North</tspan> <tspan class="fnt2" x="13.228" dy="1em" id="trsvg51">America</tspan></text>
      <text x="13.228" y="114.028" id="trsvg120" systemLanguage="es"><tspan class="fnt2" id="trsvg52">América</tspan> <tspan class="fnt2" x="13.228" dy="1em" id="trsvg53">del Norte</tspan></text>
      <text x="13.228" y="114.028" id="trsvg121" systemLanguage="fi"><tspan class="fnt2" id="trsvg54">Pohjois-</tspan> <tspan class="fnt2" x="13.228" dy="1em" id="trsvg55">Amerikka</tspan></text>
      <text x="13.228" y="114.028" id="trsvg122" systemLanguage="fr"><tspan class="fnt2" id="trsvg56">Amérique</tspan> <tspan class="fnt2" x="13.228" dy="1em" id="trsvg57">du Nord</tspan></text>
      <text x="13.228" y="114.028" id="trsvg123" systemLanguage="sr"><tspan class="fnt2" id="trsvg58">Северна</tspan> <tspan class="fnt2" x="13.228" dy="1em" id="trsvg59">Америка</tspan></text>
      <text x="13.228" y="114.028" systemLanguage="vi" id="trsvg124"><tspan class="fnt2" id="trsvg60">Bắc Mỹ</tspan></text>
      <text x="13.228" y="114.028" id="trsvg125"><tspan class="fnt2" id="trsvg61">North</tspan> <tspan class="fnt2" x="13.228" dy="1em" id="trsvg62">America</tspan></text></switch>
    <switch id="Eurasia">
      <text x="127.451" y="51.889" systemLanguage="af" id="trsvg126"><tspan class="fnt2" id="trsvg63">Eurasië</tspan></text>
      <text x="127.451" y="51.889" id="trsvg134-ast" systemLanguage="ast"><tspan class="fnt2" id="trsvg71-ast">Eurasia</tspan></text>
      <text x="127.451" y="51.889" systemLanguage="bg" id="trsvg127"><tspan class="fnt2" id="trsvg64">Евразия</tspan></text>
      <text x="127.451" y="51.889" systemLanguage="en" id="trsvg128"><tspan class="fnt2" id="trsvg65">Eurasia</tspan></text>
      <text x="127.451" y="51.889" systemLanguage="es" id="trsvg129"><tspan class="fnt2" id="trsvg66">Eurasia</tspan></text>
      <text x="127.451" y="51.889" systemLanguage="fi" id="trsvg130"><tspan class="fnt2" id="trsvg67">Euraasia</tspan></text>
      <text x="127.451" y="51.889" systemLanguage="fr" id="trsvg131"><tspan class="fnt2" id="trsvg68">Eurasie</tspan></text>
      <text x="127.451" y="51.889" systemLanguage="sr" id="trsvg132"><tspan class="fnt2" id="trsvg69">Евроазија</tspan></text>
      <text x="127.451" y="51.889" systemLanguage="vi" id="trsvg133"><tspan class="fnt2" id="trsvg70">Á Âu</tspan></text>
      <text x="127.451" y="51.889" id="trsvg134"><tspan class="fnt2" id="trsvg71">Eurasia</tspan></text></switch>
  </g>
</svg>
